<svg viewBox="0 0 48 48" fill="none" xmlns="http://www.w3.org/2000/svg">
  <defs>
    <linearGradient id="bg" x1="2" y1="2" x2="46" y2="46" gradientUnits="userSpaceOnUse">
      <stop offset="0" stop-color="#8b5cf6"/>
      <stop offset="0.5" stop-color="#6366f1"/>
      <stop offset="1" stop-color="#ec4899"/>
    </linearGradient>
    <radialGradient id="shine" cx="0.2" cy="0.15" r="0.85">
      <stop offset="0" stop-color="#ffffff" stop-opacity="0.5"/>
      <stop offset="0.5" stop-color="#ffffff" stop-opacity="0.05"/>
      <stop offset="1" stop-color="#ffffff" stop-opacity="0"/>
    </radialGradient>
    <linearGradient id="slip" x1="14" y1="13" x2="34" y2="33" gradientUnits="userSpaceOnUse">
      <stop offset="0" stop-color="#ffffff"/>
      <stop offset="1" stop-color="#f1f5f9"/>
    </linearGradient>
  </defs>
  <path d="M24 2C9.5 2 2 9.5 2 24S9.5 46 24 46 46 38.5 46 24 38.5 2 24 2z" fill="url(#bg)"/>
  <path d="M24 2C9.5 2 2 9.5 2 24S9.5 46 24 46 46 38.5 46 24 38.5 2 24 2z" fill="url(#shine)"/>
  <g transform="rotate(-7 24 24)">
    <path d="M16.5 12.5 L31.5 12.5 Q34 12.5 34 15 L34 30 L31.7 32.6 L29.5 30 L27.2 32.6 L25 30 L22.8 32.6 L20.5 30 L18.3 32.6 L16 30 L14 32.6 L14 15 Q14 12.5 16.5 12.5 Z"
          fill="#1e1b4b" fill-opacity="0.18" transform="translate(0.6 0.9)"/>
    <path d="M16.5 12.5 L31.5 12.5 Q34 12.5 34 15 L34 30 L31.7 32.6 L29.5 30 L27.2 32.6 L25 30 L22.8 32.6 L20.5 30 L18.3 32.6 L16 30 L14 32.6 L14 15 Q14 12.5 16.5 12.5 Z"
          fill="url(#slip)"/>
    <circle cx="20.2" cy="20.2" r="1.45" fill="#1e1b4b"/>
    <circle cx="27.8" cy="20.2" r="1.45" fill="#1e1b4b"/>
    <circle cx="18.4" cy="24.2" r="1.2" fill="#fb7185" fill-opacity="0.55"/>
    <circle cx="29.6" cy="24.2" r="1.2" fill="#fb7185" fill-opacity="0.55"/>
    <path d="M20 24.5 Q24 28 28 24.5" stroke="#1e1b4b" stroke-width="1.7" stroke-linecap="round" fill="none"/>
  </g>
</svg>
